<svg width="18" height="18" viewBox="0 0 18 18" fill="none" xmlns="http://www.w3.org/2000/svg">
    <g id="search">
        <path id="Shape" fill-rule="evenodd" clip-rule="evenodd"
              d="M12.5 11.25H11.7L11.4 10.95C12.4 9.85 13 8.35 13 6.75C13 3.15 10.1 0.25 6.5 0.25C2.9 0.25 0 3.15 0 6.75C0 10.35 2.9 13.25 6.5 13.25C8.1 13.25 9.6 12.65 10.7 11.65L11 11.95V12.75L16 17.75L17.5 16.25L12.5 11.25ZM6.5 11.25C4 11.25 2 9.25 2 6.75C2 4.25 4 2.25 6.5 2.25C9 2.25 11 4.25 11 6.75C11 9.25 9 11.25 6.5 11.25Z"
              fill="white"/>
    </g>
</svg>
