<svg xmlns="http://www.w3.org/2000/svg" width="14" height="15" fill="none" viewBox="0 0 14 15"><path fill="#e11966" d="M13.781 7.75c0 3.746-3.062 6.781-6.781 6.781A6.78 6.78 0 0 1 .219 7.75C.219 4.031 3.254.969 7 .969c3.719 0 6.781 3.062 6.781 6.781M7 9.117c-.71 0-1.258.574-1.258 1.258 0 .71.547 1.258 1.258 1.258.684 0 1.258-.547 1.258-1.258 0-.684-.574-1.258-1.258-1.258M5.797 4.605l.191 3.72c.028.19.164.3.328.3h1.34c.164 0 .301-.11.328-.3l.192-3.72c.027-.19-.137-.355-.328-.355H6.125c-.191 0-.355.164-.328.355"/></svg>