<svg width="56" height="56" viewBox="0 0 56 56" fill="none" xmlns="http://www.w3.org/2000/svg">
    <path fill-rule="evenodd" clip-rule="evenodd"
          d="M55.125 28C55.125 42.9808 42.9808 55.125 28 55.125C13.0192 55.125 0.875 42.9808 0.875 28C0.875 13.0192 13.0192 0.875 28 0.875C42.9808 0.875 55.125 13.0192 55.125 28ZM22.7388 35.6093L19.4692 25.6221L28 19.4394L36.5308 25.6221L33.2909 35.6093H22.7388ZM5.25 28L5.25022 27.9792L8.20378 30.5562L15.3375 23.898L13.4947 14.2972L9.57797 14.6453C12.3355 10.8584 16.2824 7.8587 21.0162 6.33817L19.4692 9.9575L28 14.6836L36.531 9.9575L34.9841 6.33817C39.7166 7.85827 43.6642 10.8577 46.4222 14.6453L42.5353 14.2972L40.6626 23.898L47.7963 30.5562L50.7498 27.9792L50.75 28C50.75 32.8891 49.2171 37.5421 46.3806 41.4122L45.5075 37.5712L35.8176 38.7602L31.6859 47.6179L35.0742 49.6334C30.5071 51.1215 25.5014 51.1243 20.9261 49.6334L24.3143 47.6179L20.1826 38.7602L10.4926 37.5712L9.61953 41.4122C6.78289 37.5421 5.25 32.8891 5.25 28Z"
          fill="black"/>
    <mask id="mask0_18094_2729" style="mask-type:luminance" maskUnits="userSpaceOnUse" x="0" y="0" width="56"
          height="56">
        <path fill-rule="evenodd" clip-rule="evenodd"
              d="M55.125 28C55.125 42.9808 42.9808 55.125 28 55.125C13.0192 55.125 0.875 42.9808 0.875 28C0.875 13.0192 13.0192 0.875 28 0.875C42.9808 0.875 55.125 13.0192 55.125 28ZM22.7388 35.6093L19.4692 25.6221L28 19.4394L36.5308 25.6221L33.2909 35.6093H22.7388ZM5.25 28L5.25022 27.9792L8.20378 30.5562L15.3375 23.898L13.4947 14.2972L9.57797 14.6453C12.3355 10.8584 16.2824 7.8587 21.0162 6.33817L19.4692 9.9575L28 14.6836L36.531 9.9575L34.9841 6.33817C39.7166 7.85827 43.6642 10.8577 46.4222 14.6453L42.5353 14.2972L40.6626 23.898L47.7963 30.5562L50.7498 27.9792L50.75 28C50.75 32.8891 49.2171 37.5421 46.3806 41.4122L45.5075 37.5712L35.8176 38.7602L31.6859 47.6179L35.0742 49.6334C30.5071 51.1215 25.5014 51.1243 20.9261 49.6334L24.3143 47.6179L20.1826 38.7602L10.4926 37.5712L9.61953 41.4122C6.78289 37.5421 5.25 32.8891 5.25 28Z"
              fill="white"/>
    </mask>
    <g mask="url(#mask0_18094_2729)">
        <rect width="56" height="56" fill="#FCFCFC"/>
    </g>
</svg>
