<svg width="56" height="56" viewBox="0 0 56 56" fill="none" xmlns="http://www.w3.org/2000/svg">
    <path d="M1.18913 34.6264C2.84496 32.867 5.61379 32.783 7.37352 34.4391L14 40.6757V31.9908L9.73384 13.2196C9.19834 10.8634 10.6742 8.51927 13.0304 7.98377C15.3873 7.44849 17.7308 8.92429 18.2662 11.2804L22.0661 27.9999H23.1416L17.9393 5.3556C17.3983 3.00065 18.8687 0.653133 21.2236 0.112165C23.5786 -0.429242 25.926 1.04163 26.467 3.39648L32.1195 27.9999H33.7716L39.0681 6.81379C39.654 4.46966 42.0294 3.04451 44.3736 3.63054C46.7177 4.21657 48.1429 6.59187 47.5568 8.93599L42.7909 27.9999H44.0028L47.368 13.8616C47.9277 11.511 50.2867 10.0588 52.6374 10.6189C54.988 11.1786 56.4398 13.5377 55.88 15.8883L51.9106 32.5644C51.7209 33.3611 51.625 34.1773 51.625 34.9963V39.6012C51.625 40.6117 51.4791 41.6169 51.1919 42.5858L48.3291 52.2421C47.6684 54.4711 45.6204 55.9999 43.2957 55.9999H19.5969C18.2596 56 16.9726 55.4896 15.9987 54.573L1.37649 40.8108C-0.383024 39.1548 -0.466805 36.3859 1.18913 34.6264Z"
          fill="black"/>
    <mask id="mask0_18094_2733" style="mask-type:luminance" maskUnits="userSpaceOnUse" x="0" y="0" width="56"
          height="56">
        <path d="M1.18913 34.6264C2.84496 32.867 5.61379 32.783 7.37352 34.4391L14 40.6757V31.9908L9.73384 13.2196C9.19834 10.8634 10.6742 8.51927 13.0304 7.98377C15.3873 7.44849 17.7308 8.92429 18.2662 11.2804L22.0661 27.9999H23.1416L17.9393 5.3556C17.3983 3.00065 18.8687 0.653133 21.2236 0.112165C23.5786 -0.429242 25.926 1.04163 26.467 3.39648L32.1195 27.9999H33.7716L39.0681 6.81379C39.654 4.46966 42.0294 3.04451 44.3736 3.63054C46.7177 4.21657 48.1429 6.59187 47.5568 8.93599L42.7909 27.9999H44.0028L47.368 13.8616C47.9277 11.511 50.2867 10.0588 52.6374 10.6189C54.988 11.1786 56.4398 13.5377 55.88 15.8883L51.9106 32.5644C51.7209 33.3611 51.625 34.1773 51.625 34.9963V39.6012C51.625 40.6117 51.4791 41.6169 51.1919 42.5858L48.3291 52.2421C47.6684 54.4711 45.6204 55.9999 43.2957 55.9999H19.5969C18.2596 56 16.9726 55.4896 15.9987 54.573L1.37649 40.8108C-0.383024 39.1548 -0.466805 36.3859 1.18913 34.6264Z"
              fill="white"/>
    </mask>
    <g mask="url(#mask0_18094_2733)">
        <rect width="56" height="56" fill="#FCFCFC"/>
    </g>
</svg>
