<svg width="56" height="56" viewBox="0 0 56 56" fill="none" xmlns="http://www.w3.org/2000/svg">
    <path fill-rule="evenodd" clip-rule="evenodd"
          d="M15.8593 12.25C15.8593 5.4845 21.3438 0 28.1093 0C34.8748 0 40.3593 5.4845 40.3593 12.25H15.8593ZM52.4272 35C54.3343 35 55.9463 33.5048 55.9986 31.5984C56.0529 29.6205 54.4656 28 52.4999 28H46.3749V21.5748L51.4748 16.4749C52.8415 15.1081 52.8415 12.892 51.4748 11.5252C50.1078 10.1583 47.8919 10.1583 46.5249 11.5252L40.5501 17.5H15.4497L9.47487 11.5251C8.1079 10.1582 5.89196 10.1582 4.525 11.5251C3.15825 12.8919 3.15825 15.108 4.525 16.4748L9.62493 21.5748V28H3.49993C1.53425 28 -0.0530036 29.6205 0.00135581 31.5984C0.0536371 33.5048 1.66572 35 3.57278 35H9.62493V36.75C9.62493 39.1414 10.1589 41.4076 11.1124 43.4377L4.525 50.0252C3.15825 51.392 3.15825 53.6081 4.525 54.9749C5.89186 56.3417 8.1079 56.3418 9.47487 54.9749L15.4616 48.9882C18.1687 51.1837 21.6178 52.5 25.3749 52.5V25.8125C25.3749 25.0877 25.9626 24.5 26.6874 24.5H29.3124C30.0373 24.5 30.6249 25.0877 30.6249 25.8125V52.5C34.3821 52.5 37.8312 51.1837 40.5382 48.9882L46.525 54.9749C47.8919 56.3417 50.1079 56.3418 51.4749 54.9749C52.8416 53.6081 52.8416 51.392 51.4749 50.0252L44.8874 43.4377C45.841 41.4076 46.3749 39.1414 46.3749 36.75V35H52.4272Z"
          fill="#FCFCFC"/>
    <mask id="mask0_18104_1625" style="mask-type:luminance" maskUnits="userSpaceOnUse" x="0" y="0" width="56"
          height="56">
        <path fill-rule="evenodd" clip-rule="evenodd"
              d="M15.8593 12.25C15.8593 5.4845 21.3438 0 28.1093 0C34.8748 0 40.3593 5.4845 40.3593 12.25H15.8593ZM52.4272 35C54.3343 35 55.9463 33.5048 55.9986 31.5984C56.0529 29.6205 54.4656 28 52.4999 28H46.3749V21.5748L51.4748 16.4749C52.8415 15.1081 52.8415 12.892 51.4748 11.5252C50.1078 10.1583 47.8919 10.1583 46.5249 11.5252L40.5501 17.5H15.4497L9.47487 11.5251C8.1079 10.1582 5.89196 10.1582 4.525 11.5251C3.15825 12.8919 3.15825 15.108 4.525 16.4748L9.62493 21.5748V28H3.49993C1.53425 28 -0.0530036 29.6205 0.00135581 31.5984C0.0536371 33.5048 1.66572 35 3.57278 35H9.62493V36.75C9.62493 39.1414 10.1589 41.4076 11.1124 43.4377L4.525 50.0252C3.15825 51.392 3.15825 53.6081 4.525 54.9749C5.89186 56.3417 8.1079 56.3418 9.47487 54.9749L15.4616 48.9882C18.1687 51.1837 21.6178 52.5 25.3749 52.5V25.8125C25.3749 25.0877 25.9626 24.5 26.6874 24.5H29.3124C30.0373 24.5 30.6249 25.0877 30.6249 25.8125V52.5C34.3821 52.5 37.8312 51.1837 40.5382 48.9882L46.525 54.9749C47.8919 56.3417 50.1079 56.3418 51.4749 54.9749C52.8416 53.6081 52.8416 51.392 51.4749 50.0252L44.8874 43.4377C45.841 41.4076 46.3749 39.1414 46.3749 36.75V35H52.4272Z"
              fill="white"/>
    </mask>
    <g mask="url(#mask0_18104_1625)">
        <rect width="56" height="56" fill="#FCFCFC"/>
    </g>
</svg>
